<svg width="218" height="56" viewBox="0 0 218 56" fill="none" xmlns="http://www.w3.org/2000/svg">
<path d="M28 0C6.22222 0 0 6.22222 0 28C0 49.7778 6.23778 56 28 56C49.7622 56 56 49.7778 56 28C56 6.22222 49.7622 0 28 0Z" fill="white"/>
<path fill-rule="evenodd" clip-rule="evenodd" d="M7.24755 7.24755C3.5875 10.9076 2 17.153 2 28C2 38.8461 3.59108 45.0918 7.25306 48.7521C10.9153 52.4127 17.1612 54 28 54C38.8388 54 45.0847 52.4127 48.7469 48.7521C52.4089 45.0918 54 38.8461 54 28C54 17.1539 52.4089 10.9082 48.7469 7.24787C45.0847 3.58733 38.8388 2 28 2C17.153 2 10.9076 3.5875 7.24755 7.24755ZM0 28C0 6.22222 6.22222 0 28 0C49.7622 0 56 6.22222 56 28C56 49.7778 49.7622 56 28 56C6.23778 56 0 49.7778 0 28Z" fill="#24292E"/>
<path fill-rule="evenodd" clip-rule="evenodd" d="M27.0769 13H15V47H24.3846V39.8889H27.0769C34.7305 39.8889 41 33.9048 41 26.4444C41 18.984 34.7305 13 27.0769 13ZM24.3846 30.7778V22.1111H27.0769C29.6194 22.1111 31.6154 24.0864 31.6154 26.4444C31.6154 28.8024 29.6194 30.7778 27.0769 30.7778H24.3846Z" fill="#24292E"/>
<path fill-rule="evenodd" clip-rule="evenodd" d="M18 12H29.0769C36.2141 12 42 17.5716 42 24.4444C42 31.3173 36.2141 36.8889 29.0769 36.8889H25.3846V44H18V12ZM25.3846 29.7778H29.0769C32.1357 29.7778 34.6154 27.39 34.6154 24.4444C34.6154 21.4989 32.1357 19.1111 29.0769 19.1111H25.3846V29.7778Z" fill="white"/>
<path fill-rule="evenodd" clip-rule="evenodd" d="M17 11H29.0769C36.7305 11 43 16.984 43 24.4444C43 31.9048 36.7305 37.8889 29.0769 37.8889H26.3846V45H17V11ZM19 13V43H24.3846V35.8889H29.0769C35.6978 35.8889 41 30.7298 41 24.4444C41 18.1591 35.6978 13 29.0769 13H19ZM24.3846 18.1111H29.0769C32.6521 18.1111 35.6154 20.9114 35.6154 24.4444C35.6154 27.9775 32.6521 30.7778 29.0769 30.7778H24.3846V18.1111ZM26.3846 20.1111V28.7778H29.0769C31.6194 28.7778 33.6154 26.8024 33.6154 24.4444C33.6154 22.0864 31.6194 20.1111 29.0769 20.1111H26.3846Z" fill="#24292E"/>
<path d="M94.1164 24.6349C94.1164 26.4691 93.6437 28.0564 92.6984 29.3968C91.7672 30.7372 90.4409 31.7742 88.7196 32.5079C87.0123 33.2416 84.9947 33.6085 82.6667 33.6085C81.1146 33.6085 79.6966 33.4462 78.4127 33.1217C77.1287 32.7972 76.0071 32.3386 75.0476 31.746L75.3439 29.8624C75.8518 30.2152 76.4021 30.5115 76.9947 30.7513C77.5873 30.9771 78.2152 31.1534 78.8783 31.2804C79.5414 31.3933 80.2328 31.4497 80.9524 31.4497C82.2504 31.4497 83.4074 31.1817 84.4233 30.6455C85.4391 30.1093 86.2363 29.3192 86.8148 28.2751C87.3933 27.231 87.6825 25.9612 87.6825 24.4656C87.6825 22.7302 87.3369 21.2275 86.6455 19.9577C85.9682 18.6878 85.0088 17.7002 83.7672 16.9947C82.5256 16.2892 81.0653 15.9365 79.3862 15.9365H77.7143V39.9365C77.7143 40.2469 77.7989 40.515 77.9683 40.7407C78.1376 40.9524 78.4056 41.0864 78.7725 41.1428L80.6138 41.3968C80.9665 41.4674 81.2205 41.5873 81.3757 41.7566C81.5309 41.9259 81.6085 42.1728 81.6085 42.4973C81.6085 42.7936 81.5026 43.0335 81.291 43.2169C81.0935 43.3862 80.776 43.4709 80.3386 43.4709H69.291C68.8536 43.4709 68.5291 43.3862 68.3175 43.2169C68.1058 43.0335 68 42.7936 68 42.4973C68 41.9612 68.2963 41.6014 68.8889 41.418L70.1164 41.1428C70.455 41.0441 70.709 40.8959 70.8783 40.6984C71.0617 40.5009 71.1534 40.2469 71.1534 39.9365V17.3757C71.1534 17.0653 71.0617 16.8113 70.8783 16.6138C70.709 16.4162 70.455 16.2681 70.1164 16.1693L68.8889 15.8942C68.2963 15.7108 68 15.351 68 14.8148C68 14.5044 68.1058 14.2646 68.3175 14.0952C68.5291 13.9259 68.8536 13.8413 69.291 13.8413H79.5556C82.6314 13.8413 85.2557 14.3069 87.4286 15.2381C89.6014 16.1552 91.2593 17.4321 92.4021 19.0688C93.545 20.6914 94.1164 22.5467 94.1164 24.6349Z" fill="#212121"/>
<path d="M114.554 30.963C114.554 31.7108 114.342 32.2892 113.919 32.6984C113.495 33.0935 112.875 33.291 112.056 33.291H98.8499V31.6825H107.506C108.226 31.6825 108.585 31.358 108.585 30.709C108.585 28.8466 108.247 27.4356 107.569 26.4762C106.892 25.5026 105.982 25.0159 104.839 25.0159C103.964 25.0159 103.188 25.2839 102.511 25.8201C101.834 26.3563 101.305 27.1252 100.924 28.127C100.543 29.1146 100.353 30.3139 100.353 31.7249C100.353 34.448 100.987 36.4938 102.257 37.8624C103.541 39.231 105.248 39.9153 107.379 39.9153C108.621 39.9153 109.707 39.6684 110.638 39.1746C111.584 38.6808 112.317 37.9753 112.839 37.0582C113.093 36.776 113.291 36.5855 113.432 36.4868C113.587 36.388 113.742 36.3386 113.897 36.3386C114.123 36.3386 114.285 36.4444 114.384 36.6561C114.483 36.8536 114.532 37.0935 114.532 37.3757C114.476 38.5608 114.053 39.6614 113.263 40.6772C112.472 41.679 111.407 42.4832 110.067 43.0899C108.726 43.6966 107.188 44 105.453 44C103.407 44 101.594 43.5838 100.014 42.7513C98.4336 41.9047 97.192 40.7266 96.289 39.2169C95.4001 37.6931 94.9557 35.9153 94.9557 33.8836C94.9557 31.7531 95.379 29.8624 96.2255 28.2116C97.0862 26.5608 98.3137 25.2698 99.9081 24.3386C101.502 23.4074 103.407 22.9418 105.622 22.9418C107.513 22.9418 109.121 23.2875 110.448 23.9788C111.788 24.6561 112.804 25.6014 113.495 26.8148C114.201 28.0141 114.554 29.3968 114.554 30.963Z" fill="#212121"/>
<path d="M136.276 30.963C136.276 31.7108 136.065 32.2892 135.642 32.6984C135.218 33.0935 134.597 33.291 133.779 33.291H120.573V31.6825H129.229C129.948 31.6825 130.308 31.358 130.308 30.709C130.308 28.8466 129.97 27.4356 129.292 26.4762C128.615 25.5026 127.705 25.0159 126.562 25.0159C125.687 25.0159 124.911 25.2839 124.234 25.8201C123.557 26.3563 123.028 27.1252 122.647 28.127C122.266 29.1146 122.075 30.3139 122.075 31.7249C122.075 34.448 122.71 36.4938 123.98 37.8624C125.264 39.231 126.971 39.9153 129.102 39.9153C130.343 39.9153 131.43 39.6684 132.361 39.1746C133.306 38.6808 134.04 37.9753 134.562 37.0582C134.816 36.776 135.014 36.5855 135.155 36.4868C135.31 36.388 135.465 36.3386 135.62 36.3386C135.846 36.3386 136.008 36.4444 136.107 36.6561C136.206 36.8536 136.255 37.0935 136.255 37.3757C136.199 38.5608 135.776 39.6614 134.985 40.6772C134.195 41.679 133.13 42.4832 131.79 43.0899C130.449 43.6966 128.911 44 127.176 44C125.13 44 123.317 43.5838 121.737 42.7513C120.157 41.9047 118.915 40.7266 118.012 39.2169C117.123 37.6931 116.679 35.9153 116.679 33.8836C116.679 31.7531 117.102 29.8624 117.948 28.2116C118.809 26.5608 120.037 25.2698 121.631 24.3386C123.225 23.4074 125.13 22.9418 127.345 22.9418C129.236 22.9418 130.844 23.2875 132.171 23.9788C133.511 24.6561 134.527 25.6014 135.218 26.8148C135.924 28.0141 136.276 29.3968 136.276 30.963Z" fill="#212121"/>
<path d="M146.147 32.254C146.147 30.2081 146.437 28.4938 147.015 27.1111C147.594 25.7284 148.356 24.6914 149.301 24C150.246 23.2945 151.262 22.9418 152.349 22.9418C153.689 22.9418 154.726 23.3227 155.46 24.0847C156.193 24.8466 156.56 25.94 156.56 27.3651C156.56 28.6349 156.299 29.5802 155.777 30.2011C155.255 30.8219 154.578 31.1323 153.745 31.1323C152.899 31.1323 152.257 30.9065 151.819 30.455C151.382 30.0035 151.163 29.3757 151.163 28.5714V27.8095C151.149 27.358 151.043 27.0264 150.846 26.8148C150.648 26.5891 150.324 26.4762 149.872 26.4762C149.379 26.4762 148.899 26.6808 148.433 27.0899C147.982 27.4991 147.608 28.1199 147.311 28.9524C147.029 29.7848 146.888 30.8501 146.888 32.1481L146.147 32.254ZM146.55 24.4021L146.888 29.2063V40.0635C146.888 40.4727 146.966 40.776 147.121 40.9735C147.29 41.157 147.587 41.2839 148.01 41.3545L149.83 41.6296C150.155 41.6861 150.394 41.7919 150.55 41.9471C150.719 42.1023 150.804 42.3139 150.804 42.582C150.804 42.8642 150.698 43.0829 150.486 43.2381C150.289 43.3933 149.999 43.4709 149.618 43.4709H139.735C139.34 43.4709 139.05 43.3933 138.867 43.2381C138.684 43.0829 138.592 42.8712 138.592 42.6032C138.592 42.3915 138.655 42.2152 138.782 42.0741C138.909 41.9189 139.107 41.7919 139.375 41.6931L140.2 41.4815C140.454 41.3968 140.638 41.2557 140.751 41.0582C140.878 40.8466 140.941 40.522 140.941 40.0846V28C140.941 27.6332 140.885 27.3721 140.772 27.2169C140.673 27.0617 140.504 26.963 140.264 26.9206L139.142 26.836C138.888 26.7795 138.705 26.6878 138.592 26.5608C138.479 26.4339 138.423 26.2716 138.423 26.0741C138.423 25.8342 138.493 25.6437 138.634 25.5026C138.775 25.3615 139.029 25.2205 139.396 25.0794L143.248 23.6825C143.939 23.4145 144.447 23.2451 144.772 23.1746C145.096 23.0899 145.35 23.0476 145.534 23.0476C145.844 23.0476 146.077 23.1534 146.232 23.3651C146.387 23.5626 146.493 23.9083 146.55 24.4021Z" fill="#212121"/>
<path d="M166.317 13.3545V40.0846C166.317 40.522 166.374 40.8466 166.487 41.0582C166.614 41.2557 166.804 41.3968 167.058 41.4815L167.862 41.6931C168.13 41.7778 168.328 41.8977 168.455 42.0529C168.582 42.194 168.645 42.3774 168.645 42.6032C168.645 42.8712 168.554 43.0829 168.37 43.2381C168.187 43.3933 167.891 43.4709 167.481 43.4709H159.143C158.748 43.4709 158.459 43.3933 158.275 43.2381C158.092 43.0829 158 42.8712 158 42.6032C158 42.3915 158.063 42.2152 158.19 42.0741C158.317 41.9189 158.515 41.7919 158.783 41.6931L159.608 41.4815C159.862 41.3827 160.046 41.2346 160.159 41.037C160.286 40.8395 160.349 40.522 160.349 40.0846V16.9101C160.349 16.5573 160.293 16.3033 160.18 16.1481C160.081 15.9929 159.912 15.8942 159.672 15.8519L158.55 15.7672C158.296 15.6966 158.113 15.5979 158 15.4709C157.887 15.3439 157.831 15.1817 157.831 14.9841C157.831 14.7584 157.901 14.575 158.042 14.4339C158.183 14.2928 158.437 14.1517 158.804 14.0106L162.741 12.5714C163.305 12.3598 163.75 12.2116 164.074 12.127C164.399 12.0423 164.681 12 164.921 12C165.386 12 165.732 12.127 165.958 12.381C166.197 12.6208 166.317 12.9453 166.317 13.3545Z" fill="#212121"/>
<path d="M178.988 24.3809V40.0846C178.988 40.522 179.044 40.8466 179.157 41.0582C179.284 41.2557 179.474 41.3968 179.728 41.4815L180.533 41.6931C180.801 41.7778 180.998 41.8977 181.125 42.0529C181.252 42.194 181.316 42.3774 181.316 42.6032C181.316 42.8712 181.224 43.0829 181.041 43.2381C180.857 43.3933 180.561 43.4709 180.152 43.4709H171.813C171.418 43.4709 171.129 43.3933 170.945 43.2381C170.762 43.0829 170.67 42.8712 170.67 42.6032C170.67 42.3915 170.734 42.2152 170.861 42.0741C170.988 41.9189 171.185 41.7919 171.453 41.6931L172.279 41.4815C172.533 41.3827 172.716 41.2346 172.829 41.037C172.956 40.8395 173.019 40.522 173.019 40.0846V27.9577C173.019 27.5908 172.963 27.3298 172.85 27.1746C172.751 27.0194 172.582 26.9206 172.342 26.8783L171.221 26.7936C170.967 26.7372 170.783 26.6455 170.67 26.5185C170.557 26.3915 170.501 26.2293 170.501 26.0317C170.501 25.7919 170.564 25.6014 170.691 25.4603C170.833 25.3192 171.094 25.1781 171.475 25.037L175.411 23.5979C175.961 23.4003 176.399 23.2593 176.723 23.1746C177.062 23.0899 177.344 23.0476 177.57 23.0476C178.049 23.0476 178.402 23.1746 178.628 23.4286C178.868 23.6684 178.988 23.9859 178.988 24.3809ZM175.538 19.8095C174.409 19.8095 173.499 19.5203 172.808 18.9418C172.131 18.3492 171.792 17.5802 171.792 16.6349C171.792 15.6896 172.131 14.9347 172.808 14.3704C173.499 13.7919 174.409 13.5026 175.538 13.5026C176.681 13.5026 177.591 13.7919 178.268 14.3704C178.96 14.9347 179.305 15.6896 179.305 16.6349C179.305 17.5802 178.96 18.3492 178.268 18.9418C177.591 19.5203 176.681 19.8095 175.538 19.8095Z" fill="#212121"/>
<path d="M191.533 24.8466C190.559 24.8466 189.798 25.0935 189.247 25.5873C188.711 26.067 188.443 26.6808 188.443 27.4286C188.443 27.8942 188.542 28.3175 188.739 28.6984C188.951 29.0652 189.346 29.4039 189.925 29.7143C190.503 30.0247 191.35 30.3139 192.464 30.582C194.637 31.0335 196.316 31.5979 197.501 32.2751C198.686 32.9524 199.512 33.7354 199.977 34.6243C200.443 35.4991 200.676 36.4797 200.676 37.5661C200.676 39.5273 199.985 41.0935 198.602 42.2645C197.219 43.4215 195.209 44 192.57 44C191.639 44 190.877 43.9153 190.284 43.746C189.692 43.5908 189.205 43.4356 188.824 43.2804C188.443 43.1111 188.104 43.0264 187.808 43.0264C187.512 43.0264 187.265 43.1111 187.067 43.2804C186.884 43.4356 186.708 43.5908 186.538 43.746C186.369 43.9153 186.143 44 185.861 44C185.607 44 185.417 43.9294 185.29 43.7883C185.163 43.6473 185.043 43.3862 184.93 43.0053L183.533 38.7513C183.378 38.2575 183.328 37.8554 183.385 37.545C183.455 37.2346 183.646 37.0159 183.956 36.8889C184.281 36.776 184.563 36.7831 184.803 36.91C185.043 37.0229 185.268 37.2416 185.48 37.5661C186.115 38.6667 186.792 39.5485 187.512 40.2116C188.231 40.8607 188.986 41.3333 189.776 41.6296C190.581 41.9259 191.399 42.0741 192.231 42.0741C193.445 42.0741 194.348 41.8271 194.94 41.3333C195.547 40.8395 195.85 40.1834 195.85 39.3651C195.85 38.8712 195.724 38.4268 195.47 38.0317C195.216 37.6226 194.743 37.2557 194.052 36.9312C193.36 36.5926 192.358 36.2751 191.046 35.9788C189.226 35.5838 187.773 35.0758 186.686 34.455C185.614 33.8201 184.838 33.0582 184.358 32.1693C183.893 31.2804 183.66 30.2504 183.66 29.0794C183.66 27.8518 183.977 26.7795 184.612 25.8624C185.247 24.9453 186.129 24.2328 187.258 23.7249C188.387 23.2028 189.692 22.9418 191.173 22.9418C192.133 22.9418 192.902 23.0265 193.48 23.1958C194.059 23.3651 194.531 23.5414 194.898 23.7249C195.279 23.8942 195.625 23.9788 195.935 23.9788C196.274 23.9788 196.542 23.8942 196.739 23.7249C196.937 23.5414 197.127 23.3651 197.311 23.1958C197.494 23.0265 197.72 22.9418 197.988 22.9418C198.2 22.9418 198.376 23.0194 198.517 23.1746C198.672 23.3157 198.785 23.5697 198.856 23.9365L199.893 27.9788C199.992 28.5009 200.013 28.91 199.956 29.2063C199.914 29.5026 199.731 29.7143 199.406 29.8413C199.096 29.9682 198.82 29.9541 198.581 29.7989C198.341 29.6437 198.101 29.3686 197.861 28.9735C196.986 27.4779 195.992 26.4197 194.877 25.7989C193.776 25.164 192.662 24.8466 191.533 24.8466Z" fill="#212121"/>
<path d="M204.074 25.5026L203.1 25.2063C202.762 25.0935 202.522 24.9665 202.381 24.8254C202.24 24.6702 202.169 24.4938 202.169 24.2963C202.169 24.0141 202.261 23.8025 202.444 23.6614C202.642 23.5062 202.903 23.4286 203.227 23.4286H204.518C204.857 23.4286 205.139 23.3651 205.365 23.2381C205.591 23.1111 205.824 22.8854 206.063 22.5608L208.37 19.3227C208.667 18.9559 208.949 18.6878 209.217 18.5185C209.485 18.3492 209.753 18.2645 210.021 18.2645C210.317 18.2645 210.55 18.3563 210.72 18.5397C210.889 18.7231 210.973 18.9912 210.973 19.3439V37.4391C210.973 38.4268 211.164 39.1816 211.545 39.7037C211.94 40.2257 212.483 40.4868 213.175 40.4868C213.697 40.4868 214.099 40.388 214.381 40.1905C214.677 39.9788 214.91 39.739 215.079 39.4709C215.249 39.2028 215.411 38.97 215.566 38.7725C215.735 38.5608 215.947 38.448 216.201 38.4339C216.413 38.4339 216.575 38.5044 216.688 38.6455C216.815 38.7866 216.878 39.0194 216.878 39.3439C216.864 40.1481 216.596 40.8959 216.074 41.5873C215.566 42.2786 214.854 42.843 213.936 43.2804C213.019 43.7037 211.975 43.9153 210.804 43.9153C208.998 43.9153 207.58 43.4638 206.55 42.5608C205.534 41.6437 205.026 40.2681 205.026 38.4339V26.7513C205.026 26.3845 204.949 26.1164 204.794 25.9471C204.653 25.7637 204.413 25.6155 204.074 25.5026ZM208.624 25.5238V23.4286H215.63C215.954 23.4286 216.208 23.4991 216.391 23.6402C216.589 23.7672 216.688 23.9577 216.688 24.2116C216.688 24.5785 216.504 24.8889 216.138 25.1429C215.771 25.3968 215.178 25.5238 214.36 25.5238H208.624Z" fill="#212121"/>
</svg>
