<svg width="150" height="32" viewBox="0 0 150 32" fill="none" xmlns="http://www.w3.org/2000/svg">
<path d="M26.1164 12.6349C26.1164 14.4691 25.6437 16.0564 24.6984 17.3968C23.7672 18.7372 22.4409 19.7742 20.7196 20.5079C19.0123 21.2416 16.9947 21.6085 14.6667 21.6085C13.1146 21.6085 11.6966 21.4462 10.4127 21.1217C9.12874 20.7972 8.00705 20.3386 7.04762 19.746L7.34391 17.8624C7.85185 18.2152 8.40211 18.5115 8.99471 18.7513C9.5873 18.9771 10.2152 19.1534 10.8783 19.2804C11.5414 19.3933 12.2328 19.4497 12.9524 19.4497C14.2504 19.4497 15.4074 19.1817 16.4233 18.6455C17.4391 18.1093 18.2363 17.3192 18.8148 16.2751C19.3933 15.231 19.6825 13.9612 19.6825 12.4656C19.6825 10.7302 19.3369 9.22751 18.6455 7.95767C17.9682 6.68783 17.0088 5.70017 15.7672 4.99471C14.5256 4.28924 13.0653 3.93651 11.3862 3.93651H9.71428V27.9365C9.71428 28.2469 9.79894 28.515 9.96825 28.7407C10.1376 28.9524 10.4056 29.0864 10.7725 29.1428L12.6138 29.3968C12.9665 29.4674 13.2205 29.5873 13.3757 29.7566C13.5309 29.9259 13.6085 30.1728 13.6085 30.4973C13.6085 30.7936 13.5026 31.0335 13.291 31.2169C13.0935 31.3862 12.776 31.4709 12.3386 31.4709H1.291C0.853615 31.4709 0.5291 31.3862 0.31746 31.2169C0.10582 31.0335 0 30.7936 0 30.4973C0 29.9612 0.296296 29.6014 0.888889 29.418L2.1164 29.1428C2.45503 29.0441 2.70899 28.8959 2.87831 28.6984C3.06173 28.5009 3.15344 28.2469 3.15344 27.9365V5.37566C3.15344 5.06525 3.06173 4.81129 2.87831 4.61376C2.70899 4.41622 2.45503 4.26808 2.1164 4.16931L0.888889 3.89418C0.296296 3.71076 0 3.35097 0 2.81481C0 2.50441 0.10582 2.26455 0.31746 2.09524C0.5291 1.92593 0.853615 1.84127 1.291 1.84127H11.5556C14.6314 1.84127 17.2557 2.30688 19.4286 3.23809C21.6014 4.1552 23.2593 5.4321 24.4021 7.06878C25.545 8.69135 26.1164 10.5467 26.1164 12.6349Z" fill="#212121"/>
<path d="M46.5536 18.963C46.5536 19.7108 46.3419 20.2892 45.9186 20.6984C45.4954 21.0935 44.8745 21.291 44.0562 21.291H30.8499V19.6825H39.5059C40.2255 19.6825 40.5853 19.358 40.5853 18.709C40.5853 16.8466 40.2467 15.4356 39.5694 14.4762C38.8922 13.5026 37.9821 13.0159 36.8393 13.0159C35.9645 13.0159 35.1885 13.2839 34.5112 13.8201C33.834 14.3563 33.3049 15.1252 32.9239 16.127C32.543 17.1146 32.3525 18.3139 32.3525 19.7249C32.3525 22.448 32.9874 24.4938 34.2573 25.8624C35.5412 27.231 37.2484 27.9153 39.379 27.9153C40.6206 27.9153 41.707 27.6684 42.6382 27.1746C43.5835 26.6808 44.3172 25.9753 44.8393 25.0582C45.0932 24.776 45.2908 24.5855 45.4319 24.4868C45.5871 24.388 45.7423 24.3386 45.8975 24.3386C46.1232 24.3386 46.2855 24.4444 46.3842 24.6561C46.483 24.8536 46.5324 25.0935 46.5324 25.3757C46.476 26.5608 46.0527 27.6614 45.2626 28.6772C44.4724 29.679 43.4072 30.4832 42.0668 31.0899C40.7264 31.6966 39.1885 32 37.453 32C35.4072 32 33.5941 31.5838 32.0139 30.7513C30.4336 29.9047 29.192 28.7266 28.289 27.2169C27.4001 25.6931 26.9557 23.9153 26.9557 21.8836C26.9557 19.7531 27.379 17.8624 28.2255 16.2116C29.0862 14.5608 30.3137 13.2698 31.9081 12.3386C33.5024 11.4074 35.4072 10.9418 37.6223 10.9418C39.513 10.9418 41.1215 11.2875 42.4477 11.9788C43.7881 12.6561 44.804 13.6014 45.4954 14.8148C46.2008 16.0141 46.5536 17.3968 46.5536 18.963Z" fill="#212121"/>
<path d="M68.2764 18.963C68.2764 19.7108 68.0648 20.2892 67.6415 20.6984C67.2182 21.0935 66.5974 21.291 65.7791 21.291H52.5727V19.6825H61.2288C61.9484 19.6825 62.3082 19.358 62.3082 18.709C62.3082 16.8466 61.9696 15.4356 61.2923 14.4762C60.6151 13.5026 59.705 13.0159 58.5621 13.0159C57.6874 13.0159 56.9114 13.2839 56.2341 13.8201C55.5569 14.3563 55.0278 15.1252 54.6468 16.127C54.2659 17.1146 54.0754 18.3139 54.0754 19.7249C54.0754 22.448 54.7103 24.4938 55.9801 25.8624C57.2641 27.231 58.9713 27.9153 61.1018 27.9153C62.3435 27.9153 63.4299 27.6684 64.3611 27.1746C65.3064 26.6808 66.0401 25.9753 66.5621 25.0582C66.8161 24.776 67.0136 24.5855 67.1547 24.4868C67.3099 24.388 67.4651 24.3386 67.6203 24.3386C67.8461 24.3386 68.0084 24.4444 68.1071 24.6561C68.2059 24.8536 68.2553 25.0935 68.2553 25.3757C68.1988 26.5608 67.7756 27.6614 66.9854 28.6772C66.1953 29.679 65.13 30.4832 63.7897 31.0899C62.4493 31.6966 60.9114 32 59.1759 32C57.1301 32 55.317 31.5838 53.7368 30.7513C52.1565 29.9047 50.9149 28.7266 50.0119 27.2169C49.123 25.6931 48.6786 23.9153 48.6786 21.8836C48.6786 19.7531 49.1018 17.8624 49.9484 16.2116C50.8091 14.5608 52.0366 13.2698 53.6309 12.3386C55.2253 11.4074 57.1301 10.9418 59.3452 10.9418C61.2359 10.9418 62.8443 11.2875 64.1706 11.9788C65.511 12.6561 66.5269 13.6014 67.2182 14.8148C67.9237 16.0141 68.2764 17.3968 68.2764 18.963Z" fill="#212121"/>
<path d="M78.1475 20.254C78.1475 18.2081 78.4367 16.4938 79.0152 15.1111C79.5937 13.7284 80.3556 12.6914 81.3009 12C82.2462 11.2945 83.2621 10.9418 84.3485 10.9418C85.6889 10.9418 86.7259 11.3227 87.4596 12.0847C88.1933 12.8466 88.5602 13.94 88.5602 15.3651C88.5602 16.6349 88.2991 17.5802 87.7771 18.2011C87.255 18.8219 86.5778 19.1323 85.7453 19.1323C84.8988 19.1323 84.2568 18.9065 83.8194 18.455C83.382 18.0035 83.1633 17.3757 83.1633 16.5714V15.8095C83.1492 15.358 83.0434 15.0264 82.8459 14.8148C82.6483 14.5891 82.3238 14.4762 81.8723 14.4762C81.3785 14.4762 80.8988 14.6808 80.4332 15.0899C79.9817 15.4991 79.6078 16.1199 79.3115 16.9524C79.0293 17.7848 78.8882 18.8501 78.8882 20.1481L78.1475 20.254ZM78.5496 12.4021L78.8882 17.2063V28.0635C78.8882 28.4727 78.9658 28.776 79.121 28.9735C79.2903 29.157 79.5866 29.2839 80.0099 29.3545L81.83 29.6296C82.1545 29.6861 82.3944 29.7919 82.5496 29.9471C82.7189 30.1023 82.8035 30.3139 82.8035 30.582C82.8035 30.8642 82.6977 31.0829 82.4861 31.2381C82.2885 31.3933 81.9993 31.4709 81.6184 31.4709H71.7348C71.3397 31.4709 71.0505 31.3933 70.867 31.2381C70.6836 31.0829 70.5919 30.8712 70.5919 30.6032C70.5919 30.3915 70.6554 30.2152 70.7824 30.0741C70.9094 29.9189 71.1069 29.7919 71.375 29.6931L72.2004 29.4815C72.4543 29.3968 72.6378 29.2557 72.7506 29.0582C72.8776 28.8466 72.9411 28.522 72.9411 28.0846V16C72.9411 15.6332 72.8847 15.3721 72.7718 15.2169C72.673 15.0617 72.5037 14.963 72.2639 14.9206L71.1422 14.836C70.8882 14.7795 70.7048 14.6878 70.5919 14.5608C70.479 14.4339 70.4226 14.2716 70.4226 14.0741C70.4226 13.8342 70.4931 13.6437 70.6342 13.5026C70.7753 13.3615 71.0293 13.2205 71.3961 13.0794L75.248 11.6825C75.9393 11.4145 76.4473 11.2451 76.7718 11.1746C77.0963 11.0899 77.3503 11.0476 77.5337 11.0476C77.8441 11.0476 78.0769 11.1534 78.2321 11.3651C78.3873 11.5626 78.4931 11.9083 78.5496 12.4021Z" fill="#212121"/>
<path d="M98.3174 1.3545V28.0846C98.3174 28.522 98.3739 28.8466 98.4867 29.0582C98.6137 29.2557 98.8042 29.3968 99.0582 29.4815L99.8624 29.6931C100.13 29.7778 100.328 29.8977 100.455 30.0529C100.582 30.194 100.645 30.3774 100.645 30.6032C100.645 30.8712 100.554 31.0829 100.37 31.2381C100.187 31.3933 99.8906 31.4709 99.4814 31.4709H91.1428C90.7478 31.4709 90.4585 31.3933 90.2751 31.2381C90.0917 31.0829 90 30.8712 90 30.6032C90 30.3915 90.0635 30.2152 90.1904 30.0741C90.3174 29.9189 90.515 29.7919 90.783 29.6931L91.6084 29.4815C91.8624 29.3827 92.0458 29.2346 92.1587 29.037C92.2857 28.8395 92.3492 28.522 92.3492 28.0846V4.91005C92.3492 4.55732 92.2927 4.30335 92.1799 4.14815C92.0811 3.99294 91.9118 3.89418 91.6719 3.85185L90.5502 3.7672C90.2963 3.69665 90.1128 3.59788 90 3.4709C89.8871 3.34392 89.8307 3.18166 89.8307 2.98413C89.8307 2.75838 89.9012 2.57495 90.0423 2.43386C90.1834 2.29277 90.4374 2.15167 90.8042 2.01058L94.7407 0.57143C95.3051 0.35979 95.7495 0.211642 96.074 0.126985C96.3986 0.0423283 96.6807 0 96.9206 0C97.3862 0 97.7319 0.126984 97.9576 0.380952C98.1975 0.620812 98.3174 0.945327 98.3174 1.3545Z" fill="#212121"/>
<path d="M110.988 12.3809V28.0846C110.988 28.522 111.044 28.8466 111.157 29.0582C111.284 29.2557 111.474 29.3968 111.728 29.4815L112.533 29.6931C112.801 29.7778 112.998 29.8977 113.125 30.0529C113.252 30.194 113.316 30.3774 113.316 30.6032C113.316 30.8712 113.224 31.0829 113.041 31.2381C112.857 31.3933 112.561 31.4709 112.152 31.4709H103.813C103.418 31.4709 103.129 31.3933 102.945 31.2381C102.762 31.0829 102.67 30.8712 102.67 30.6032C102.67 30.3915 102.734 30.2152 102.861 30.0741C102.988 29.9189 103.185 29.7919 103.453 29.6931L104.279 29.4815C104.533 29.3827 104.716 29.2346 104.829 29.037C104.956 28.8395 105.019 28.522 105.019 28.0846V15.9577C105.019 15.5908 104.963 15.3298 104.85 15.1746C104.751 15.0194 104.582 14.9206 104.342 14.8783L103.221 14.7936C102.967 14.7372 102.783 14.6455 102.67 14.5185C102.557 14.3915 102.501 14.2293 102.501 14.0317C102.501 13.7919 102.564 13.6014 102.691 13.4603C102.833 13.3192 103.094 13.1781 103.475 13.037L107.411 11.5979C107.961 11.4003 108.399 11.2593 108.723 11.1746C109.062 11.0899 109.344 11.0476 109.57 11.0476C110.049 11.0476 110.402 11.1746 110.628 11.4286C110.868 11.6684 110.988 11.9859 110.988 12.3809ZM107.538 7.80952C106.409 7.80952 105.499 7.52028 104.808 6.9418C104.131 6.3492 103.792 5.58025 103.792 4.63492C103.792 3.68959 104.131 2.93474 104.808 2.37037C105.499 1.79189 106.409 1.50265 107.538 1.50265C108.681 1.50265 109.591 1.79189 110.268 2.37037C110.96 2.93474 111.305 3.68959 111.305 4.63492C111.305 5.58025 110.96 6.3492 110.268 6.9418C109.591 7.52028 108.681 7.80952 107.538 7.80952Z" fill="#212121"/>
<path d="M123.533 12.8466C122.559 12.8466 121.798 13.0935 121.247 13.5873C120.711 14.067 120.443 14.6808 120.443 15.4286C120.443 15.8942 120.542 16.3175 120.739 16.6984C120.951 17.0652 121.346 17.4039 121.925 17.7143C122.503 18.0247 123.35 18.3139 124.464 18.582C126.637 19.0335 128.316 19.5979 129.501 20.2751C130.686 20.9524 131.512 21.7354 131.977 22.6243C132.443 23.4991 132.676 24.4797 132.676 25.5661C132.676 27.5273 131.985 29.0935 130.602 30.2645C129.219 31.4215 127.209 32 124.57 32C123.639 32 122.877 31.9153 122.284 31.746C121.692 31.5908 121.205 31.4356 120.824 31.2804C120.443 31.1111 120.104 31.0264 119.808 31.0264C119.512 31.0264 119.265 31.1111 119.067 31.2804C118.884 31.4356 118.708 31.5908 118.538 31.746C118.369 31.9153 118.143 32 117.861 32C117.607 32 117.417 31.9294 117.29 31.7883C117.163 31.6473 117.043 31.3862 116.93 31.0053L115.533 26.7513C115.378 26.2575 115.328 25.8554 115.385 25.545C115.455 25.2346 115.646 25.0159 115.956 24.8889C116.281 24.776 116.563 24.7831 116.803 24.91C117.043 25.0229 117.268 25.2416 117.48 25.5661C118.115 26.6667 118.792 27.5485 119.512 28.2116C120.231 28.8607 120.986 29.3333 121.776 29.6296C122.581 29.9259 123.399 30.0741 124.231 30.0741C125.445 30.0741 126.348 29.8271 126.94 29.3333C127.547 28.8395 127.85 28.1834 127.85 27.3651C127.85 26.8712 127.724 26.4268 127.47 26.0317C127.216 25.6226 126.743 25.2557 126.052 24.9312C125.36 24.5926 124.358 24.2751 123.046 23.9788C121.226 23.5838 119.773 23.0758 118.686 22.455C117.614 21.8201 116.838 21.0582 116.358 20.1693C115.893 19.2804 115.66 18.2504 115.66 17.0794C115.66 15.8518 115.977 14.7795 116.612 13.8624C117.247 12.9453 118.129 12.2328 119.258 11.7249C120.387 11.2028 121.692 10.9418 123.173 10.9418C124.133 10.9418 124.902 11.0265 125.48 11.1958C126.059 11.3651 126.531 11.5414 126.898 11.7249C127.279 11.8942 127.625 11.9788 127.935 11.9788C128.274 11.9788 128.542 11.8942 128.739 11.7249C128.937 11.5414 129.127 11.3651 129.311 11.1958C129.494 11.0265 129.72 10.9418 129.988 10.9418C130.2 10.9418 130.376 11.0194 130.517 11.1746C130.672 11.3157 130.785 11.5697 130.856 11.9365L131.893 15.9788C131.992 16.5009 132.013 16.91 131.956 17.2063C131.914 17.5026 131.731 17.7143 131.406 17.8413C131.096 17.9682 130.82 17.9541 130.581 17.7989C130.341 17.6437 130.101 17.3686 129.861 16.9735C128.986 15.4779 127.992 14.4197 126.877 13.7989C125.776 13.164 124.662 12.8466 123.533 12.8466Z" fill="#212121"/>
<path d="M136.074 13.5026L135.1 13.2063C134.762 13.0935 134.522 12.9665 134.381 12.8254C134.24 12.6702 134.169 12.4938 134.169 12.2963C134.169 12.0141 134.261 11.8025 134.444 11.6614C134.642 11.5062 134.903 11.4286 135.227 11.4286H136.518C136.857 11.4286 137.139 11.3651 137.365 11.2381C137.591 11.1111 137.824 10.8854 138.063 10.5608L140.37 7.32275C140.667 6.95591 140.949 6.68783 141.217 6.51852C141.485 6.3492 141.753 6.26455 142.021 6.26455C142.317 6.26455 142.55 6.35626 142.72 6.53968C142.889 6.7231 142.973 6.99118 142.973 7.34391V25.4391C142.973 26.4268 143.164 27.1816 143.545 27.7037C143.94 28.2257 144.483 28.4868 145.175 28.4868C145.697 28.4868 146.099 28.388 146.381 28.1905C146.677 27.9788 146.91 27.739 147.079 27.4709C147.249 27.2028 147.411 26.97 147.566 26.7725C147.735 26.5608 147.947 26.448 148.201 26.4339C148.413 26.4339 148.575 26.5044 148.688 26.6455C148.815 26.7866 148.878 27.0194 148.878 27.3439C148.864 28.1481 148.596 28.8959 148.074 29.5873C147.566 30.2786 146.854 30.843 145.936 31.2804C145.019 31.7037 143.975 31.9153 142.804 31.9153C140.998 31.9153 139.58 31.4638 138.55 30.5608C137.534 29.6437 137.026 28.2681 137.026 26.4339V14.7513C137.026 14.3845 136.949 14.1164 136.794 13.9471C136.653 13.7637 136.413 13.6155 136.074 13.5026ZM140.624 13.5238V11.4286H147.63C147.954 11.4286 148.208 11.4991 148.391 11.6402C148.589 11.7672 148.688 11.9577 148.688 12.2116C148.688 12.5785 148.504 12.8889 148.138 13.1429C147.771 13.3968 147.178 13.5238 146.36 13.5238H140.624Z" fill="#212121"/>
</svg>
